<svg width="403" height="425" viewBox="0 0 403 425" fill="none" xmlns="http://www.w3.org/2000/svg">
<path d="M350.521 381.749L350.521 127.238M350.521 381.749L198.416 423.7M350.521 381.749L0.958002 288.055M350.521 381.749L261.909 332.804M350.521 381.749L188.9 219.377M350.521 381.749L160.041 72.7002M350.521 381.749L291.313 159.706M350.521 381.749L86.7789 381.748M350.521 381.749L389.594 257.29M350.521 381.749L396.572 322.316" stroke="#F7F7F7"/>
<circle cx="74.5674" cy="381.7" r="6" transform="rotate(-90 74.5674 381.7)" fill="#2978E0"/>
<circle cx="179.567" cy="208.7" r="6" transform="rotate(-90 179.567 208.7)" fill="#2978E0"/>
<circle cx="288.567" cy="148.7" r="6" transform="rotate(-90 288.567 148.7)" fill="#2978E0"/>
<circle cx="392.567" cy="245.7" r="6" transform="rotate(-90 392.567 245.7)" fill="#2978E0"/>
</svg>
